HIERARCHY
ROOT reference
{
  OFFSET 0 0 0
  CHANNELS 6 Xposition Yposition Zposition Zrotation Xrotation Yrotation
  JOINT Hips
  {
    OFFSET 352.076 86.5813 226.294
    CHANNELS 3 Zrotation Xrotation Yrotation
    JOINT RightUpLeg
    {
      OFFSET -9.24446 -1.53332 -0.0100408
      CHANNELS 3 Zrotation Xrotation Yrotation
      JOINT RightLeg
      {
        OFFSET 0.0379954 -41.8775 0.0555708
        CHANNELS 3 Zrotation Xrotation Yrotation
        JOINT RightFoot
        {
          OFFSET 0.0737403 -43.7597 -0.208372
          CHANNELS 3 Zrotation Xrotation Yrotation
          End Site
          {
            OFFSET 0 -7.69 17.5
          }
        }
      }
    }
    JOINT LeftUpLeg
    {
      OFFSET 9.31004 -1.65148 -0.0333589
      CHANNELS 3 Zrotation Xrotation Yrotation
      JOINT LeftLeg
      {
        OFFSET 0.0881386 -41.8624 -0.0616493
        CHANNELS 3 Zrotation Xrotation Yrotation
        JOINT LeftFoot
        {
          OFFSET 0.763074 -39.9619 0.249975
          CHANNELS 3 Zrotation Xrotation Yrotation
          End Site
          {
            OFFSET 0 -7.69 17.5
          }
        }
      }
    }
    JOINT Spine
    {
      OFFSET 0.105097 14.2958 0.096313
      CHANNELS 3 Zrotation Xrotation Yrotation
      JOINT Spine1
      {
        OFFSET 0.0609256 9.72986 0.0283835
        CHANNELS 3 Zrotation Xrotation Yrotation
        JOINT Spine2
        {
          OFFSET 0.0349843 10.1145 -0.0203086
          CHANNELS 3 Zrotation Xrotation Yrotation
          JOINT Spine3
          {
            OFFSET 0.0323734 9.71864 0.0196425
            CHANNELS 3 Zrotation Xrotation Yrotation
            JOINT Neck
            {
              OFFSET 0.219168 10.3708 0.0833364
              CHANNELS 3 Zrotation Xrotation Yrotation
              JOINT Head
              {
                OFFSET 0.200748 9.48753 0.0966912
                CHANNELS 3 Zrotation Xrotation Yrotation
                End Site
                {
                  OFFSET 0 15.95 0
                }
              }
            }
            JOINT RightShoulder
            {
              OFFSET -3.14734 6.94135 0.063802
              CHANNELS 3 Zrotation Xrotation Yrotation
              JOINT RightArm
              {
                OFFSET -12.765 0.137663 0.228635
                CHANNELS 3 Zrotation Xrotation Yrotation
                JOINT RightForeArm
                {
                  OFFSET -26.5344 -0.389186 -0.00603507
                  CHANNELS 3 Zrotation Xrotation Yrotation
                  JOINT RightHand
                  {
                    OFFSET -26.1352 -0.0585664 0.0704552
                    CHANNELS 3 Zrotation Xrotation Yrotation
                    JOINT RightHandThumb1
                    {
                      OFFSET -2.48905 0.190105 3.12053
                      CHANNELS 3 Zrotation Xrotation Yrotation
                      JOINT RightHandThumb2
                      {
                        OFFSET -3.68274 0 0
                        CHANNELS 3 Zrotation Xrotation Yrotation
                        JOINT RightHandThumb3
                        {
                          OFFSET -2.55832 0 0
                          CHANNELS 3 Zrotation Xrotation Yrotation
                          End Site
                          {
                            OFFSET -2.194 0 0
                          }
                        }
                      }
                    }
                    JOINT RightInHandIndex
                    {
                      OFFSET -3.22368 0.508421 1.97842
                      CHANNELS 3 Zrotation Xrotation Yrotation
                      JOINT RightHandIndex1
                      {
                        OFFSET -5.21684 -0.091368 0.999158
                        CHANNELS 3 Zrotation Xrotation Yrotation
                        JOINT RightHandIndex2
                        {
                          OFFSET -3.61937 0 0
                          CHANNELS 3 Zrotation Xrotation Yrotation
                          JOINT RightHandIndex3
                          {
                            OFFSET -2.0521 0 0
                            CHANNELS 3 Zrotation Xrotation Yrotation
                            End Site
                            {
                              OFFSET -1.805 0 0
                            }
                          }
                        }
                      }
                    }
                    JOINT RightInHandMiddle
                    {
                      OFFSET -3.38211 0.517263 0.756737
                      CHANNELS 3 Zrotation Xrotation Yrotation
                      JOINT RightHandMiddle1
                      {
                        OFFSET -5.17411 -0.084 0.313895
                        CHANNELS 3 Zrotation Xrotation Yrotation
                        JOINT RightHandMiddle2
                        {
                          OFFSET -3.94947 0 0
                          CHANNELS 3 Zrotation Xrotation Yrotation
                          JOINT RightHandMiddle3
                          {
                            OFFSET -2.47579 0 0
                            CHANNELS 3 Zrotation Xrotation Yrotation
                            End Site
                            {
                              OFFSET -1.975 0 0
                            }
                          }
                        }
                      }
                    }
                    JOINT RightInHandRing
                    {
                      OFFSET -3.36516 0.537895 -0.128947
                      CHANNELS 3 Zrotation Xrotation Yrotation
                      JOINT RightHandRing1
                      {
                        OFFSET -4.63474 -0.022105 -0.478947
                        CHANNELS 3 Zrotation Xrotation Yrotation
                        JOINT RightHandRing2
                        {
                          OFFSET -3.44238 0 0
                          CHANNELS 3 Zrotation Xrotation Yrotation
                          JOINT RightHandRing3
                          {
                            OFFSET -2.3881 0 0
                            CHANNELS 3 Zrotation Xrotation Yrotation
                            End Site
                            {
                              OFFSET -1.857 0 0
                            }
                          }
                        }
                      }
                    }
                    JOINT RightInHandPinky
                    {
                      OFFSET -3.16105 0.469368 -1.20179
                      CHANNELS 3 Zrotation Xrotation Yrotation
                      JOINT RightHandPinky1
                      {
                        OFFSET -4.14105 -0.022105 -1.09053
                        CHANNELS 3 Zrotation Xrotation Yrotation
                        JOINT RightHandPinky2
                        {
                          OFFSET -2.75653 0 0
                          CHANNELS 3 Zrotation Xrotation Yrotation
                          JOINT RightHandPinky3
                          {
                            OFFSET -1.74189 0 0
                            CHANNELS 3 Zrotation Xrotation Yrotation
                            End Site
                            {
                              OFFSET -1.645 0 0
                            }
                          }
                        }
                      }
                    }
                  }
                }
              }
            }
            JOINT LeftShoulder
            {
              OFFSET 3.26179 6.89719 -0.0373062
              CHANNELS 3 Zrotation Xrotation Yrotation
              JOINT LeftArm
              {
                OFFSET 12.4839 0.0196156 -0.0323257
                CHANNELS 3 Zrotation Xrotation Yrotation
                JOINT LeftForeArm
                {
                  OFFSET 26.5039 -0.120667 0.247609
                  CHANNELS 3 Zrotation Xrotation Yrotation
                  JOINT LeftHand
                  {
                    OFFSET 25.9984 -0.032285 0.00286418
                    CHANNELS 3 Zrotation Xrotation Yrotation
                    JOINT LeftHandThumb1
                    {
                      OFFSET 2.48905 0.190105 3.12053
                      CHANNELS 3 Zrotation Xrotation Yrotation
                      JOINT LeftHandThumb2
                      {
                        OFFSET 3.68274 0 0
                        CHANNELS 3 Zrotation Xrotation Yrotation
                        JOINT LeftHandThumb3
                        {
                          OFFSET 2.55832 0 0
                          CHANNELS 3 Zrotation Xrotation Yrotation
                          End Site
                          {
                            OFFSET 2.194 0 0
                          }
                        }
                      }
                    }
                    JOINT LeftInHandIndex
                    {
                      OFFSET 3.22368 0.508421 1.97842
                      CHANNELS 3 Zrotation Xrotation Yrotation
                      JOINT LeftHandIndex1
                      {
                        OFFSET 5.21684 -0.091368 0.999158
                        CHANNELS 3 Zrotation Xrotation Yrotation
                        JOINT LeftHandIndex2
                        {
                          OFFSET 3.61937 0 0
                          CHANNELS 3 Zrotation Xrotation Yrotation
                          JOINT LeftHandIndex3
                          {
                            OFFSET 2.0521 0 0
                            CHANNELS 3 Zrotation Xrotation Yrotation
                            End Site
                            {
                              OFFSET 1.805 0 0
                            }
                          }
                        }
                      }
                    }
                    JOINT LeftInHandMiddle
                    {
                      OFFSET 3.38211 0.517263 0.756737
                      CHANNELS 3 Zrotation Xrotation Yrotation
                      JOINT LeftHandMiddle1
                      {
                        OFFSET 5.17411 -0.084 0.313895
                        CHANNELS 3 Zrotation Xrotation Yrotation
                        JOINT LeftHandMiddle2
                        {
                          OFFSET 3.94947 0 0
                          CHANNELS 3 Zrotation Xrotation Yrotation
                          JOINT LeftHandMiddle3
                          {
                            OFFSET 2.47579 0 0
                            CHANNELS 3 Zrotation Xrotation Yrotation
                            End Site
                            {
                              OFFSET 1.975 0 0
                            }
                          }
                        }
                      }
                    }
                    JOINT LeftInHandRing
                    {
                      OFFSET 3.36516 0.537895 -0.128947
                      CHANNELS 3 Zrotation Xrotation Yrotation
                      JOINT LeftHandRing1
                      {
                        OFFSET 4.63474 -0.022105 -0.478947
                        CHANNELS 3 Zrotation Xrotation Yrotation
                        JOINT LeftHandRing2
                        {
                          OFFSET 3.44238 0 0
                          CHANNELS 3 Zrotation Xrotation Yrotation
                          JOINT LeftHandRing3
                          {
                            OFFSET 2.3881 0 0
                            CHANNELS 3 Zrotation Xrotation Yrotation
                            End Site
                            {
                              OFFSET 1.857 0 0
                            }
                          }
                        }
                      }
                    }
                    JOINT LeftInHandPinky
                    {
                      OFFSET 3.16105 0.469368 -1.20179
                      CHANNELS 3 Zrotation Xrotation Yrotation
                      JOINT LeftHandPinky1
                      {
                        OFFSET 4.14105 -0.022105 -1.09053
                        CHANNELS 3 Zrotation Xrotation Yrotation
                        JOINT LeftHandPinky2
                        {
                          OFFSET 2.75653 0 0
                          CHANNELS 3 Zrotation Xrotation Yrotation
                          JOINT LeftHandPinky3
                          {
                            OFFSET 1.74189 0 0
                            CHANNELS 3 Zrotation Xrotation Yrotation
                            End Site
                            {
                              OFFSET 1.645 0 0
                            }
                          }
                        }
                      }
                    }
                  }
                }
              }
            }
          }
        }
      }
    }
  }
}
MOTION
Frames:	4
Frame Time:	0.00833333
0 0 0 0 0 -0 24.7034 7.8072 -120.397 31.0798 -48.5768 27.5949 -8.74107 16.0934 1.24697 16.7224 13.7005 35.1736 40.1144 -20.7909 27.0701 -17.168 46.8217 19.174 -6.26356 -28.6032 -5.32625 -4.78319 -1.17979 -11.7285 -1.17563 -0.504894 -2.91442 -1.95779 -0.909031 -4.76874 -0.471928 -0.139617 2.71678 -0.998263 -2.4599 36.2427 -8.2123 7.77153 28.6663 8.9363 4.72986 -4.62353 51.3323 -56.0979 6.71628 18.3117 -7.32649 127.216 11.3679 -26.3984 8.17025 28.184 10.7294 19.1592 -1.2007e-14 4.47266e-16 -10 -2.41249e-14 -5.2181e-16 -10 -9.93923e-16 0 3.97569e-16 19.9818 0.871897 2.3964 24 6.36111e-15 2.06736e-14 20 -7.95139e-16 -1.27222e-14 -9.93923e-16 0 3.97569e-16 20 7.95139e-15 9.0447e-15 24 -3.18055e-15 2.38542e-14 20 -1.43125e-14 -1.27222e-14 -9.93923e-16 0 3.97569e-16 19.9748 -1.02565 -2.81938 24 1.27222e-14 2.62396e-14 20 -1.59028e-15 -7.95139e-15 -9.93923e-16 0 3.97569e-16 19.7815 -3.00948 -8.30515 24 9.54166e-15 2.36554e-14 20 6.36111e-15 -1.59028e-15 13.2773 -17.66 -50.3397 -15.6859 26.1919 -114.533 30.3486 -9.25724 -34.5298 -32.0844 -8.11313 -16.2268 -28.184 10.7294 -19.1592 -1.62599e-15 -7.95139e-16 10 4.12117e-15 -1.19271e-15 10 4.96962e-15 7.95139e-16 1.59028e-15 -19.9818 0.871897 -2.3964 -24 -4.77083e-15 1.90833e-14 -20 -3.18055e-15 1.19271e-14 4.96962e-15 7.95139e-16 1.59028e-15 -20 -3.18055e-15 1.59028e-14 -24 -3.18055e-15 1.29831e-14 -20 0 7.95139e-15 4.96962e-15 7.95139e-16 1.59028e-15 -19.9748 -1.02565 2.81938 -24 -7.95139e-15 1.51076e-14 -20 -4.77083e-15 1.23246e-14 4.96962e-15 7.95139e-16 1.59028e-15 -19.7815 -3.00948 8.30515 -24 -3.18055e-15 1.90833e-14 -20 0 1.34677e-14 
0 0 0 0 0 -0 25.0632 7.95449 -119.609 30.7167 -49.1811 27.2128 -8.60815 16.1424 0.697128 16.657 13.7187 35.2074 40.2222 -21.6689 26.9508 -16.7011 47.082 18.6572 -6.26386 -28.5352 -5.32958 -4.68388 -1.10669 -11.8024 -1.15205 -0.483766 -2.93585 -1.91839 -0.873423 -4.80428 -0.468283 -0.142006 2.70883 -1.00954 -2.45701 35.6731 -8.17742 7.50189 28.9083 8.9708 4.47094 -4.56195 52.1102 -55.1598 6.96699 18.1338 -7.18032 126.441 11.1198 -26.5067 8.81717 28.184 10.7294 19.1592 -8.11306e-15 6.36111e-15 -10 -1.04826e-14 9.34288e-15 -10 6.95746e-16 0 -7.95139e-16 19.9818 0.871897 2.3964 24 4.77083e-15 2.06736e-14 20 -3.18055e-15 -9.54166e-15 6.95746e-16 0 -7.95139e-16 20 4.77083e-15 7.45443e-15 24 -4.77083e-15 2.46493e-14 20 -9.54166e-15 -1.11319e-14 6.95746e-16 0 -7.95139e-16 19.9748 -1.02565 -2.81938 24 4.77083e-15 2.70347e-14 20 1.59028e-15 -6.36111e-15 6.95746e-16 0 -7.95139e-16 19.7815 -3.00948 -8.30515 24 9.54166e-15 2.41523e-14 20 9.54166e-15 -0 13.343 -17.8096 -50.263 -15.77 26.4766 -114.511 30.0792 -9.01034 -33.5962 -32.1841 -8.1524 -16.1704 -28.184 10.7294 -19.1592 1.62548e-15 -4.17448e-15 10 1.15035e-14 -3.27995e-15 10 1.19271e-15 1.59028e-15 -0 -19.9818 0.871897 -2.3964 -24 -3.18055e-15 1.72943e-14 -20 -3.18055e-15 1.03368e-14 1.19271e-15 1.59028e-15 -0 -20 0 1.59028e-14 -24 -3.18055e-15 1.34677e-14 -20 0 1.03368e-14 1.19271e-15 1.59028e-15 -0 -19.9748 -1.02565 2.81938 -24 -4.77083e-15 1.07344e-14 -20 -1.59028e-15 1.23246e-14 1.19271e-15 1.59028e-15 -0 -19.7815 -3.00948 8.30515 -24 0 1.82882e-14 -20 -3.18055e-15 1.80521e-14 
0 0 0 0 0 -0 25.4922 8.10317 -118.729 30.3053 -49.8698 26.7765 -8.53313 16.2751 0.258708 16.6637 13.6131 35.1372 40.3042 -22.6959 26.8537 -16.2529 47.2745 18.0802 -6.12072 -28.4147 -5.26935 -4.57611 -1.06446 -11.9178 -1.12568 -0.470065 -2.96636 -1.87448 -0.849593 -4.85417 -0.465001 -0.144167 2.69988 -1.02152 -2.43823 35.0171 -8.13496 7.22056 29.1895 9.01126 4.186 -4.5224 52.9304 -54.079 7.29642 17.9656 -7.13992 125.556 10.8932 -26.5369 9.37286 28.184 10.7294 19.1592 -1.50494e-14 -6.36111e-15 -10 -2.4256e-14 -4.77083e-15 -10 -1.98785e-16 -3.18055e-15 -1.59028e-15 19.9818 0.871897 2.3964 24 1.11319e-14 1.59028e-14 20 0 -7.95139e-15 -1.98785e-16 -3.18055e-15 -1.59028e-15 20 9.54166e-15 7.95139e-15 24 1.59028e-15 2.62396e-14 20 -9.54166e-15 -1.27222e-14 -1.98785e-16 -3.18055e-15 -1.59028e-15 19.9748 -1.02565 -2.81938 24 6.36111e-15 2.8625e-14 20 1.59028e-15 -6.36111e-15 -1.98785e-16 -3.18055e-15 -1.59028e-15 19.7815 -3.00948 -8.30515 24 6.36111e-15 2.64881e-14 20 9.54166e-15 7.95139e-16 13.3821 -17.9223 -50.1719 -15.8272 26.7963 -114.468 29.7744 -8.77961 -32.605 -32.2846 -8.17609 -16.1281 -28.184 10.7294 -19.1592 -1.39605e-15 -2.38542e-15 10 9.03011e-15 -1.98785e-15 10 -9.93923e-16 0 -0 -19.9818 0.871897 -2.3964 -24 -1.59028e-15 1.8487e-14 -20 -1.59028e-15 1.19271e-14 -9.93923e-16 0 -0 -20 0 1.43125e-14 -24 -1.59028e-15 1.25234e-14 -20 -3.18055e-15 6.36111e-15 -9.93923e-16 0 -0 -19.9748 -1.02565 2.81938 -24 3.18055e-15 1.63003e-14 -20 6.36111e-15 9.93923e-15 -9.93923e-16 0 -0 -19.7815 -3.00948 8.30515 -24 0 2.62396e-14 -20 -6.36111e-15 1.57288e-14 
0 0 0 0 0 -0 25.9745 8.27417 -117.759 29.8332 -50.6142 26.3133 -8.46854 16.4764 -0.174568 16.6832 13.4181 35.0052 40.3598 -23.8472 26.762 -15.7623 47.5047 17.4197 -5.90429 -28.3042 -5.16765 -4.44872 -1.0297 -12.0736 -1.09421 -0.457614 -3.0071 -1.82211 -0.827495 -4.92048 -0.462915 -0.145133 2.68937 -1.03521 -2.41235 34.2498 -8.09861 6.9261 29.5178 9.03289 3.86619 -4.39785 53.751 -52.9466 7.63783 17.7353 -7.14723 124.557 11.1146 -27.1139 10.8865 28.184 10.7294 19.1592 -2.42669e-14 3.18055e-15 -10 -2.06055e-14 4.77083e-15 -10 -3.37934e-15 -3.18055e-15 3.18055e-15 19.9818 0.871897 2.3964 24 7.95139e-15 2.06736e-14 20 -3.18055e-15 -6.36111e-15 -3.37934e-15 -3.18055e-15 3.18055e-15 20 9.54166e-15 6.16232e-15 24 -4.77083e-15 2.70347e-14 20 -1.59028e-14 -6.36111e-15 -3.37934e-15 -3.18055e-15 3.18055e-15 19.9748 -1.02565 -2.81938 24 9.54166e-15 3.10104e-14 20 1.59028e-15 -7.95139e-15 -3.37934e-15 -3.18055e-15 3.18055e-15 19.7815 -3.00948 -8.30515 24 3.18055e-15 2.32578e-14 20 6.36111e-15 1.59028e-15 13.4105 -17.9918 -50.0384 -15.8984 27.1661 -114.321 29.4458 -8.54859 -31.6619 -32.3887 -8.15824 -16.0902 -28.184 10.7294 -19.1592 -7.85529e-15 -2.38542e-15 10 3.61095e-15 -1.59028e-15 10 6.75868e-15 -3.18055e-15 3.18055e-15 -19.9818 0.871897 -2.3964 -24 -3.18055e-15 1.67476e-14 -20 0 1.03368e-14 6.75868e-15 -3.18055e-15 3.18055e-15 -20 -3.18055e-15 1.74931e-14 -24 -3.18055e-15 1.2921e-14 -20 -3.18055e-15 9.54166e-15 6.75868e-15 -3.18055e-15 3.18055e-15 -19.9748 -1.02565 2.81938 -24 -1.27222e-14 8.74653e-15 -20 -3.18055e-15 1.31198e-14 6.75868e-15 -3.18055e-15 3.18055e-15 -19.7815 -3.00948 8.30515 -24 3.18055e-15 1.74931e-14 -20 -6.36111e-15 1.86361e-14 
